<svg xmlns="http://www.w3.org/2000/svg" viewBox="0 0 228.6 43.98"><defs><style>.cls-1{font-size:42.56px;stroke:#fff;stroke-miterlimit:10;stroke-width:0.75px;font-family:SimHei, SimHei;}.cls-1,.cls-2{fill:#fff;}</style></defs><title>白logo 2</title><g id="图层_2" data-name="图层 2"><g id="图层_1-2" data-name="图层 1"><text class="cls-1" transform="translate(57.97 36.95)">五零盛同</text><g id="LINE"><polygon class="cls-2" points="42.77 11.49 42.77 42.7 1.74 42.7 6.86 37.5 37.57 37.5 37.57 16.7 27.36 16.7 32.49 11.49 42.77 11.49"/><polygon class="cls-2" points="42.77 2.83 42.77 8.02 35.91 8.02 41.03 2.83 42.77 2.83"/><polygon class="cls-2" points="41.03 2.83 35.91 8.02 5.2 8.02 5.2 28.83 15.4 28.83 10.28 34.03 0 34.03 0 2.83 41.03 2.83"/><path class="cls-2" d="M35.79,25.07a7.23,7.23,0,0,1-4.91,9H10.53l5.13-5.2h13.5a1.73,1.73,0,0,0,0-3.46H19.07l5.12-5.2h6.68A7.21,7.21,0,0,1,35.79,25.07Z" transform="translate(-0.25)"/><path class="cls-2" d="M32.74,11.49l-5.13,5.2H14.12a1.73,1.73,0,1,0,0,3.47H24.2l-5.12,5.2H12.39a7.23,7.23,0,0,1,0-13.87Z" transform="translate(-0.25)"/><polygon class="cls-2" points="6.86 37.5 1.74 42.7 0 42.7 0 37.5 6.86 37.5"/></g></g></g></svg>