<svg xmlns="http://www.w3.org/2000/svg" viewBox="0 0 220.24 40.4"><defs><style>.cls-1{fill:#fff;stroke:#fff;stroke-miterlimit:10;stroke-width:0.75px;}.cls-2{fill:#0087ca;}.cls-3{fill:#0096d5;}.cls-4{fill:none;stroke:#7bcbdf;stroke-linecap:round;stroke-linejoin:round;stroke-width:0.25px;}</style></defs><title>logo2</title><g id="图层_2" data-name="图层 2"><g id="图层_1-2" data-name="图层 1"><path class="cls-1" d="M89.39,4.7q2.28,0,4.39-.16V7.47q-2.12-.16-4.23-.16h-12l-1,8.63h12.7a30.34,30.34,0,0,0-.33,4.88l-.33,11.88q5.21,0,7.49-.16v3.42q-2.28-.16-6.67-.16H66a45.67,45.67,0,0,0-6.19.33V32.53q2.44.16,5.86.16H71l2-14.16H69q-2.93,0-4.72.16V15.77q2,.16,4.72.16h4.39l1-8.63H67.09q-2.61,0-4.88.16V4.54q2.11.16,4.88.16Zm-4.07,28,.49-14.16h-9.6l-2,14.16Z" transform="translate(-0.12)"/><path class="cls-1" d="M120.64,18.21q.32.65,3.74,2.6a32.06,32.06,0,0,0,6.67,2.93,43.88,43.88,0,0,0,7.16,1.46,12,12,0,0,0-2,3.42,48.73,48.73,0,0,1-5.7-1.63,35.19,35.19,0,0,1-6.19-3,33.2,33.2,0,0,1-5.53-4q-1.46,1.14-3.83,2.85a37.22,37.22,0,0,1-5.53,3.26,49.69,49.69,0,0,1-6.75,2.69,23.19,23.19,0,0,0-2-3.09,25.71,25.71,0,0,0,5.53-1.46,44.24,44.24,0,0,0,4.56-2.12,24.52,24.52,0,0,0,3.91-2.6,13.75,13.75,0,0,0,2.93-3.26q.16-1.79.16-4.07V9.09h-13v4.39h-3.09V6.65h16.11V4h-7.65q-2.28,0-4.4.16V1.44q2.11.16,4.23.16h18.72q1.63,0,4.56-.16V4.21q-2.93-.16-5.53-.16h-7v2.6h16.11a32.67,32.67,0,0,0,0,6.51h-3.09V9.09h-13v3.09q0,1.79.16,4.07h-2.44q1.3.49,3.09,1Zm-5.86-.49h-8.14V15.44h8.14Zm.16-4.72h-8.14V10.72h8.14Zm4.39,20.35q1-.81,3.74-3.74h-9.28q-2.77,0-5.53.16V26.83q2.77.16,5.53.16h15.46q-1.46,1.46-3.58,3.83a43.07,43.07,0,0,1-3.42,3.5,19.14,19.14,0,0,0,2.12.9q1.14.4,2.93,1.22a23.91,23.91,0,0,0-1.79,2.77q-4.39-2-7.65-3.17t-5.53-1.87a12.94,12.94,0,0,0,1.3-2.77Q116.57,32.37,119.34,33.35Zm.41-9.85c.16.38.51,1.06,1.06,2a22.59,22.59,0,0,0-2.77,1.3,40.17,40.17,0,0,0-1.79-3.74,16.19,16.19,0,0,0,2.6-1.14A10.73,10.73,0,0,1,119.75,23.5Zm12-5.78h-8.63V15.44h8.63Zm0-4.72h-8.46V10.72h8.46Z" transform="translate(-0.12)"/><path class="cls-1" d="M162.15,1a33,33,0,0,0,3.58.16q-.16,2-.16,5.21h7.81q2.28,0,5.21-.16V9.09q-2.93-.16-5.21-.16h-7.49a19.72,19.72,0,0,0,2.6,7.16,16,16,0,0,0,4.56-5.86,15.32,15.32,0,0,0,3.26,2.12q-.82.82-2.2,2.28t-3.66,3.74q2.28,3.09,4.23,3.74t2.6-3.42a7.21,7.21,0,0,0,3.09,1.79q-2,6.51-5.7,5.21A14.29,14.29,0,0,1,168,20.49,40.21,40.21,0,0,1,160.85,25a5.67,5.67,0,0,0-2.28-2.28,21.18,21.18,0,0,0,7.49-4.56,30.53,30.53,0,0,1-3.26-9.28H149.13v3.58h10.42a67.11,67.11,0,0,1-.57,6.84q-.41,2.77-2,3.66a13.42,13.42,0,0,1-4.31,1.38,6.47,6.47,0,0,0-1.46-3.26q3.58-.32,4.15-1.06t.9-5h-7.16a22.24,22.24,0,0,1-1.06,5.53,30.64,30.64,0,0,1-2.69,5.86A7.91,7.91,0,0,0,141.8,25a11.52,11.52,0,0,0,3-5A24.5,24.5,0,0,0,146,12.84a45,45,0,0,0-.24-6.51h16.77Q162.31,4.7,162.15,1ZM174.68,35.3q2.11,0,4.88-.16v2.93q-2.77-.16-9.6-.16H150.1q-4.39,0-7.81.16V35.14q2.28.16,4.72.16,0-6.84-.16-9.44h27.83Zm-19.21,0V28.46H150.1V35.3Zm7.81,0V28.46h-4.72V35.3Zm8.14,0V28.46h-5V35.3ZM175,4.21q-1.46,1-2.6,1.79a22.35,22.35,0,0,0-3.91-3.91q1-.65,2.28-1.63A29.09,29.09,0,0,1,175,4.21Z" transform="translate(-0.12)"/><path class="cls-1" d="M219.61,8.77V35q0,2.28-1.63,2.85a23.92,23.92,0,0,1-5.21.9,8.11,8.11,0,0,0-1.3-3.74,20.06,20.06,0,0,0,3.74-.24,1.29,1.29,0,0,0,1.14-1.38V5.68H189.49V38.55h-3.74q.16-2.28.33-5.21V8.77q0-3.91-.16-6.19h34A48,48,0,0,0,219.61,8.77ZM208.7,10.23q3.25,0,4.72-.16v3.26q-1.63-.16-4.88-.16H198q-3.91,0-5.53.16V10.07q1.79.16,5.7.16Zm1.46,13.35a54.62,54.62,0,0,0,.33,6.35h-15.3q.16-2.93.16-6.67T195.19,18h15.3A33.84,33.84,0,0,0,210.17,23.58Zm-2.93,3.58V20.65h-8.79v6.51Z" transform="translate(-0.12)"/><g id="LINE"><polygon class="cls-2" points="41.99 9.72 41.99 40.27 1.82 40.27 6.84 35.18 36.9 35.18 36.9 14.82 26.91 14.82 31.93 9.72 41.99 9.72"/><polygon class="cls-2" points="41.99 1.24 41.99 6.33 35.28 6.33 40.3 1.24 41.99 1.24"/><polygon class="cls-3" points="40.3 1.24 35.28 6.33 5.22 6.33 5.22 26.69 15.21 26.69 10.19 31.79 0.13 31.79 0.13 1.24 40.3 1.24"/><path class="cls-2" d="M35,23a7.07,7.07,0,0,1-4.81,8.77H10.31l5-5.09H28.54a1.7,1.7,0,0,0,0-3.39H18.68l5-5.09h6.54A7.06,7.06,0,0,1,35,23Z" transform="translate(-0.12)"/><path class="cls-3" d="M32.06,9.72l-5,5.1H13.83a1.7,1.7,0,1,0,0,3.39h9.86l-5,5.09H12.13a7.07,7.07,0,0,1,0-13.58Z" transform="translate(-0.12)"/><polygon class="cls-3" points="6.84 35.18 1.82 40.27 0.13 40.27 0.13 35.18 6.84 35.18"/><polyline class="cls-4" points="0.13 40.27 1.82 40.27 41.99 40.27"/><polyline class="cls-4" points="36.9 35.18 6.84 35.18 0.13 35.18"/><polyline class="cls-4" points="30.11 31.79 10.19 31.79 0.13 31.79"/><polyline class="cls-4" points="28.42 26.69 15.21 26.69 5.22 26.69"/><polyline class="cls-4" points="28.42 23.3 18.55 23.3 12.01 23.3"/><polyline class="cls-4" points="30.11 18.21 23.57 18.21 13.7 18.21"/><polyline class="cls-4" points="36.9 14.82 26.91 14.82 13.7 14.82"/><polyline class="cls-4" points="41.99 9.72 31.93 9.72 12.01 9.72"/><polyline class="cls-4" points="41.99 6.33 35.28 6.33 5.22 6.33"/><polyline class="cls-4" points="41.99 1.24 40.3 1.24 0.13 1.24"/><line class="cls-4" x1="41.99" y1="1.24" x2="41.99" y2="6.33"/><line class="cls-4" x1="41.99" y1="9.72" x2="41.99" y2="40.28"/><line class="cls-4" x1="36.9" y1="14.82" x2="36.9" y2="35.18"/><line class="cls-4" x1="0.13" y1="1.24" x2="0.13" y2="31.79"/><line class="cls-4" x1="0.13" y1="35.18" x2="0.13" y2="40.28"/><line class="cls-4" x1="5.22" y1="6.33" x2="5.22" y2="26.69"/><path class="cls-4" d="M12.13,9.72a7.07,7.07,0,0,0,0,13.58" transform="translate(-0.12)"/><path class="cls-4" d="M30.24,31.79a7.07,7.07,0,0,0,0-13.58" transform="translate(-0.12)"/><path class="cls-4" d="M13.83,14.82a1.7,1.7,0,1,0,0,3.39" transform="translate(-0.12)"/><path class="cls-4" d="M28.54,26.69a1.7,1.7,0,0,0,0-3.39" transform="translate(-0.12)"/><line class="cls-4" x1="1.82" y1="40.28" x2="6.84" y2="35.18"/><line class="cls-4" x1="10.19" y1="31.79" x2="15.21" y2="26.69"/><line class="cls-4" x1="18.55" y1="23.3" x2="23.57" y2="18.21"/><line class="cls-4" x1="26.91" y1="14.82" x2="31.93" y2="9.72"/><line class="cls-4" x1="35.28" y1="6.33" x2="40.3" y2="1.24"/></g></g></g></svg>