<svg xmlns="http://www.w3.org/2000/svg" viewBox="0 0 188.96 66.86"><defs><style>.cls-1{fill:gray;}</style></defs><title>gray1</title><g id="图层_2" data-name="图层 2"><g id="图层_1-2" data-name="图层 1"><path class="cls-1" d="M100.33,56.33V66.51a4.84,4.84,0,0,1-1,.24c-9.61,0-19.22.21-28.82,0A20.92,20.92,0,0,1,50.35,45.59c0-4.58.11-9.17.45-13.74.66-8.91,9.14-17.28,18.05-17.49,10.42-.25,20.85-.06,31.46-.06V24.66H97.38c-7,0-14,0-21,0-5.64,0-9.65,3.94-10.09,10.11h29.2v11H68.91c-3,0-3.18.24-2.28,3.19a10.4,10.4,0,0,0,10.19,7.37c6.85,0,13.7,0,20.55,0Z"/><path class="cls-1" d="M189,54.36V66.59a17.51,17.51,0,0,1-1.77.19c-8,0-16,.07-24.06,0-9.26-.09-18.41-6.66-19.56-15.57-1.11-8.63-2.56-17.72,1.52-26.08a18.32,18.32,0,0,1,16.07-10.79c9.16-.45,18.36-.11,27.75-.11V26.91c-.76,0-1.57.14-2.38.14-5.68,0-11.36-.07-17-.14-4.15-.06-9.3,3.24-10.78,7.38-2.75,7.7-1.25,15.36,7.54,19.06a12.08,12.08,0,0,0,4.36.86c5.26.1,10.52,0,15.79,0C187.23,54.25,188,54.32,189,54.36Z"/><path class="cls-1" d="M46.33,14.28V27.06H42.26C37.17,27,32.08,27,27,27c-5.67-.07-11.34,4.8-11.93,10.46-.54,5.19-.47,10.3,4.31,13.82a13.43,13.43,0,0,0,8.74,3.07c5.9-.23,11.82-.06,17.89-.06V66.78H40.53c-5.93,0-11.87.2-17.79-.06-5.52-.25-11-1.19-15.38-5C2.44,57.43-.21,52.1,0,45.45c.11-3.17,0-6.35,0-9.52C.1,24.76,6,17.56,16.44,14.56a17.7,17.7,0,0,1,4.72-.46c7.93,0,15.87,0,23.8,0A11.15,11.15,0,0,1,46.33,14.28Z"/><path class="cls-1" d="M136.48,66.71H120.86a5.56,5.56,0,0,1-.27-1.19q.06-17.77.17-35.54a5,5,0,0,0-5-5.3c-3.65-.05-7.3,0-11.1,0V14.37a5.27,5.27,0,0,1,1.16-.26c7.34,0,14.69,0,22,.2a9.41,9.41,0,0,1,8.69,8,20.09,20.09,0,0,1,.25,3q0,20-.11,40.06C136.63,65.71,136.55,66.11,136.48,66.71Z"/><polygon class="cls-1" points="137.67 7.31 152.29 0 152.29 10.96 137.67 18.27 137.67 7.31"/></g></g></svg>