<svg xmlns="http://www.w3.org/2000/svg" viewBox="0 0 58.08 54.16"><defs><style>.cls-1{fill:gray;}</style></defs><title>gray2</title><g id="图层_2" data-name="图层 2"><g id="图层_1-2" data-name="图层 1"><g id="LINE"><polygon class="cls-1" points="58.08 11.77 58.08 54.16 2.35 54.16 9.31 47.09 51.02 47.09 51.02 18.84 37.16 18.84 44.13 11.77 58.08 11.77"/><polygon class="cls-1" points="58.08 0 58.08 7.06 48.77 7.06 55.74 0 58.08 0"/><polygon class="cls-1" points="55.74 0 48.77 7.06 7.06 7.06 7.06 35.32 20.92 35.32 13.96 42.38 0 42.38 0 0 55.74 0"/><path class="cls-1" d="M48.52,30.46a9.81,9.81,0,0,1-6.67,12.17H14.21l7-7.06H39.5a2.35,2.35,0,0,0,0-4.7H25.81l7-7.06h9.08A9.78,9.78,0,0,1,48.52,30.46Z" transform="translate(-0.25 -0.25)"/><path class="cls-1" d="M44.37,12l-7,7.07H19.09a2.36,2.36,0,0,0,0,4.71H32.77l-7,7.06H16.73a9.82,9.82,0,0,1,0-18.85Z" transform="translate(-0.25 -0.25)"/><polygon class="cls-1" points="9.31 47.09 2.35 54.16 0 54.16 0 47.09 9.31 47.09"/></g></g></g></svg>